# xmcd
#
# Track frame offsets:
#	150
#	12561
#	30057
#	42906
#	58152
#	68647
#	80852
#	97968
#	111368
#
# Disc length: 1693 seconds
#
# Revision: 0
# Processed by: cddbd v1.5.2PL0 Copyright (c) Steve Scherf et al.
# Submitted via: audiograbber 1.83.01
#
DISCID=6f069b09
DTITLE=Varmints and Vagrants - Wonderful World
DYEAR=2015
DGENRE=Country - Punk - Rockabilly
TTITLE0=wonderful world
TTITLE1=hang me high
TTITLE2=evil touch (in the night)
TTITLE3=don´t say nothing at all
TTITLE4=ramblin´ man
TTITLE5=maniac
TTITLE6=goin´ back
TTITLE7=young and wasted
TTITLE8=last rock´n´ roll
EXTD=
EXTT0=
EXTT1=
EXTT2=
EXTT3=
EXTT4=
EXTT5=
EXTT6=
EXTT7=
EXTT8=
PLAYORDER=
